<?xml version="1.0" encoding="UTF-8"?>
<svg class="" enable-background="new 0 0 512 512" version="1.1" viewBox="0 0 512 512" xml:space="preserve" xmlns="http://www.w3.org/2000/svg"><g fill="#fff"><path class="" d="m203.54 288.6c0 30.076 24.47 54.545 54.545 54.545 30.067 0 54.536-24.47 54.536-54.545 0-30.076-24.47-54.536-54.536-54.536-30.075 0-54.545 24.46-54.545 54.536zm156.52 85.951c21.988 0 39.875-17.887 39.875-39.866 0-21.987-17.887-39.875-39.875-39.875-21.987 0-39.875 17.887-39.875 39.875 1e-3 21.979 17.888 39.866 39.875 39.866z" data-original="#000000"/><path class="" d="m407.11 395.43c-3.858-10.738-10.905-16.186-20.965-16.186h-57.725a13.99 13.99 0 0 0-5.16 0.995l-4.119-9.929c-1.813-5.197-7.112-19.198-24.246-19.198h-77.565c-11.872 0-20.072 6.582-24.386 19.57l-3.616 9.817a13.855 13.855 0 0 0-5.755-1.255h-57.725c-10.059 0-17.107 5.448-20.965 16.186l-25.223 60.812a13.956 13.956 0 0 0 1.283 13.09 13.981 13.981 0 0 0 11.603 6.201h326.9c4.658 0 9.009-2.333 11.603-6.201a13.956 13.956 0 0 0 1.283-13.09z" data-original="#000000"/><path class="" d="M112.064 334.68c0 21.978 17.887 39.866 39.875 39.866 21.987 0 39.875-17.887 39.875-39.866 0-21.987-17.887-39.875-39.875-39.875-21.988.001-39.875 17.888-39.875 39.875zM193.812 159.683h35.422l13.955 32.428A13.941 13.941 0 0 0 256 200.543h.149a13.949 13.949 0 0 0 12.774-8.711l13.034-32.149h36.231c13.183 0 23.903-10.719 23.903-23.903V60.382c0-13.183-10.719-23.912-23.903-23.912H193.812c-13.183 0-23.903 10.729-23.903 23.912v75.399c.001 13.183 10.72 23.902 23.903 23.902zM117.261 285.248a13.989 13.989 0 0 0 8.953 3.254c1.962 0 3.942-.418 5.792-1.264a13.921 13.921 0 0 0 8.153-12.439l.251-14.243h10.998c11.723 0 21.262-9.539 21.262-21.262v-65.116c0-11.724-9.539-21.262-21.262-21.262H60.066c-11.723 0-21.262 9.539-21.262 21.262v65.116c0 11.723 9.539 21.262 21.262 21.262h27.696zM451.934 149.01h-91.343c-11.723 0-21.262 9.539-21.262 21.262v65.107c0 11.723 9.539 21.262 21.262 21.262h10.998l.251 14.252a13.943 13.943 0 0 0 13.946 13.694c3.207 0 6.387-1.106 8.953-3.245l29.499-24.702h27.696c11.723 0 21.262-9.539 21.262-21.262v-65.107c.001-11.722-9.538-21.261-21.262-21.261z" data-original="#000000"/></g></svg>
